<?xml version="1.0" encoding="UTF-8"?>
<svg xmlns="http://www.w3.org/2000/svg" viewBox="81.461 331.108 431.947 179.703" width="431.947" height="179.703" role="img" aria-label="Virtut">
<title>Virtut</title>
<g fill="#FFFFFF" fill-rule="evenodd">
<path d="M486.851 351.16 L487.191 352.118 L487.012 352.879 L486.81 353.395 L486.81 353.395 L487.081 353.616 L487.374 354.084 L488.209 354.994 L488.997 355.414 L489.492 355.366 L490.235 355.294 L491.179 354.707 L492.371 354.096 L492.036 355.863 L491.996 358.098 L491.932 360.087 L491.846 361.831 L493.354 361.933 L494.591 361.813 L494.522 361.076 L494.43 360.094 L494.632 359.578 L494.586 359.087 L494.54 358.596 L494.247 358.128 L494.224 357.883 L494.201 357.637 L493.953 357.661 L493.705 357.685 L493.729 357.931 L493.999 358.152 L493.527 358.446 L493.256 358.224 L493.504 358.2 L493.481 357.955 L493.481 357.955 L493.458 357.709 L493.435 357.463 L493.412 357.218 L493.907 357.17 L494.402 357.122 L494.581 356.361 L494.805 356.092 L498.12 359.489 L499.363 362.095 L500.583 364.456 L501.619 364.852 L502.362 364.78 L503.081 364.462 L503.237 363.456 L502.356 362.054 L502.017 361.095 L501.746 360.873 L501.746 360.873 L501.545 361.388 L501.614 362.126 L501.366 362.149 L501.343 361.904 L500.981 360.699 L500.371 359.519 L499.513 358.363 L498.339 356.493 L497.413 354.6 L496.509 352.952 L495.853 351.28 L497.091 351.161 L497.834 351.089 L498.058 350.819 L498.305 350.795 L498.283 350.55 L498.035 350.574 L499.002 350.232 L499.722 349.915 L501.477 349.993 L503.21 349.826 L503.526 350.539 L503.843 351.251 L504.113 351.473 L504.384 351.695 L504.879 351.647 L505.621 351.575 L506.318 351.012 L507.015 350.449 L507.757 350.377 L508.476 350.06 L508.949 349.766 L509.173 349.497 L509.127 349.005 L508.857 348.784 L508.091 348.61 L507.303 348.19 L504.557 348.208 L501.564 348.249 L499.066 348.243 L498.03 347.848 L498.703 347.039 L499.647 346.452 L500.839 345.841 L501.806 345.499 L502.255 344.96 L502.479 344.691 L502.457 344.445 L502.209 344.469 L501.443 344.295 L501.173 344.073 L499.014 345.026 L497.126 346.2 L497.391 343.696 L497.139 340.994 L497.789 339.939 L498.215 339.154 L498.394 338.393 L498.572 337.632 L498.256 336.92 L497.962 336.452 L497.669 335.985 L497.128 335.542 L496.61 335.343 L495.867 335.415 L495.372 335.463 L494.652 335.781 L493.956 336.344 L493.507 336.883 L492.856 337.938 L492.453 338.968 L492.568 340.196 L492.683 341.424 L492.551 342.676 L491.969 344.468 L491.652 343.755 L491.359 343.288 L490.818 342.844 L490.277 342.401 L488.47 339.105 L487.429 335.984 L485.719 336.397 L484.752 336.738 L486.018 339.59 L487.554 342.664 L486.386 343.521 L485.217 344.377 L484.002 344.743 L483.26 344.815 L481.999 344.688 L480.963 344.293 L479.973 344.389 L479.231 344.461 L478.511 344.778 L477.792 345.096 L477.343 345.635 L476.894 346.174 L476.491 347.204 L476.358 348.457 L476.674 349.169 L476.968 349.637 L477.261 350.104 L477.825 350.793 L478.907 351.68 L478.93 351.926 L479.673 351.854 L480.617 351.267 L483.587 350.98 Z"/>
<path d="M316.391 432.615 L315.896 432.663 L315.424 432.956 L314.952 433.25 L314.502 433.789 L314.572 434.526 L315.113 434.969 L315.337 434.7 L316.011 433.891 L316.437 433.106 Z"/>
<path d="M318.951 441.29 L319.02 442.027 L319.809 442.447 L320.35 442.89 L320.868 443.088 L322.013 441.986 L322.215 441.471 L321.202 441.321 L320.189 441.171 L319.671 440.973 L319.176 441.021 L318.951 441.29 Z"/>
<path d="M317.603 453.566 L318.391 453.986 L319.651 454.112 L319.899 454.088 L319.853 453.597 L319.784 452.86 L319.537 452.884 L318.299 453.003 Z"/>
<path d="M316.397 470.042 L316.173 470.312 L316.489 471.025 L317.278 471.445 L317.773 471.397 L318.987 471.031 L319.931 470.444 L319.661 470.223 L319.39 470.001 L319.12 469.779 L318.377 469.851 L317.387 469.947 Z"/>
<path d="M311.567 474.476 L312.718 476.099 L314.387 477.921 L314.612 477.651 L314.813 477.136 L313.956 475.98 L312.851 474.847 L312.31 474.404 L312.039 474.182 L311.792 474.206 Z"/>
<path d="M309.407 486.086 L308.981 486.871 L308.555 487.656 L308.377 488.417 L308.918 488.861 L309.591 488.052 L310.264 487.243 L310.219 486.752 L309.948 486.53 L309.654 486.062 Z"/>
<path d="M131.422 492.394 L130.541 490.992 L129.684 489.835 L128.711 487.45 L127.986 485.042 L127.239 482.388 L126.761 479.955 L125.783 474.845 L125.053 469.71 L124.68 463.053 L123.88 457.182 L123.104 451.556 L121.631 446.493 L121.2 444.552 L121.016 442.587 L120.809 440.376 L120.625 438.411 L120.101 435.487 L119.152 433.348 L118.249 431.7 L117.144 430.568 L116.309 429.657 L115.25 429.016 L114.709 428.572 L114.64 427.835 L114.502 426.361 L114.364 424.888 L113.979 423.438 L113.616 422.233 L112.397 419.873 L110.975 418.027 L107.953 415.097 L106.037 413.3 L104.932 412.167 L104.166 411.993 L103.919 412.017 L103.447 412.311 L103.222 412.58 L102.796 413.365 L102.008 412.946 L101.196 412.281 L101.916 411.963 L102.365 411.424 L102.543 410.663 L102.497 410.172 L100.626 408.865 L97.427 406.696 L96.661 406.522 L95.648 406.372 L95.176 406.666 L94.681 406.714 L94.635 406.222 L94.814 405.462 L94.791 405.216 L94.272 405.018 L93.507 404.844 L92.022 404.988 L92.695 404.179 L93.369 403.37 L92.218 401.747 L90.843 400.393 L90.572 400.171 L90.054 399.973 L90.031 399.727 L90.278 399.703 L90.503 399.434 L90.727 399.164 L90.86 397.912 L90.498 396.708 L90.135 395.504 L89.502 394.078 L89.589 392.334 L89.653 390.345 L89.693 388.11 L90.004 386.097 L90.137 384.845 L90.269 383.593 L92.267 380.921 L94.242 378.003 L96.199 377.566 L97.638 376.931 L99.371 376.764 L101.374 376.818 L101.552 376.057 L101.731 375.296 L102.295 375.985 L102.882 376.92 L105.426 377.418 L108.263 378.382 L111.124 379.593 L114.255 381.025 L114.704 380.486 L114.906 379.971 L115.648 379.899 L116.143 379.851 L115.942 380.366 L115.516 381.151 L115.809 381.618 L116.103 382.086 L116.396 382.553 L116.914 382.751 L117.973 383.392 L118.762 383.812 L119.395 385.238 L120.862 387.574 L122.623 390.379 L124.609 392.913 L124.879 393.135 L125.892 393.285 L125.915 393.53 L125.691 393.8 L125.443 393.824 L124.701 393.896 L124.885 395.861 L124.775 397.358 L124.395 398.635 L124.194 399.15 L123.836 400.672 L123.974 402.146 L124.492 402.343 L125.235 402.271 L125.528 402.739 L125.574 403.23 L125.62 403.721 L125.125 403.769 L124.832 403.302 L124.337 403.35 L124.337 403.35 L124.112 403.62 L124.181 404.356 L124.521 405.315 L123.467 407.4 L123.179 409.659 L122.845 411.426 L122.286 413.463 L122.516 415.919 L122.476 418.154 L122.976 420.832 L123.206 423.289 L122.918 425.548 L122.653 428.052 L122.566 429.795 L122.456 431.293 L122.571 432.521 L122.957 433.971 L123.912 438.836 L125.183 444.415 L125.66 446.847 L126.069 448.543 L126.115 449.034 L126.385 449.256 L126.633 449.232 L126.587 448.74 L126.661 452.203 L126.914 454.906 L127.121 457.116 L127.53 458.812 L128.277 461.466 L129.273 464.096 L131.345 464.888 L133.146 465.457 L134.902 465.535 L136.163 465.661 L137.377 465.296 L138.592 464.93 L139.513 464.098 L140.21 463.534 L141.511 461.426 L142.542 459.095 L143.526 456.273 L144.286 453.721 L146.123 449.33 L147.713 444.962 L149.054 440.619 L149.631 436.101 L148.745 431.973 L147.974 429.073 L147.024 426.934 L146.098 425.041 L145.148 422.902 L144.694 420.715 L144.308 419.265 L144.17 417.791 L144.28 416.293 L144.389 414.795 L144.879 412.022 L145.662 409.715 L148.448 407.463 L151.258 405.456 L154.09 403.695 L157.463 402.377 L161.216 399.783 L164.745 397.459 L166.363 396.063 L167.756 394.937 L169.126 393.565 L170.025 392.487 L172.673 388.76 L174.671 386.088 L175.972 383.98 L176.87 382.901 L177.296 382.117 L177.429 380.864 L177.561 379.612 L177.693 378.36 L177.872 377.599 L178.523 376.545 L179.421 375.466 L180.543 374.119 L183.059 371.644 L185.08 369.218 L185.506 368.433 L185.731 368.164 L186.45 367.846 L186.922 367.553 L187.935 367.702 L188.971 368.098 L190.03 368.739 L190.594 369.428 L190.888 369.896 L190.911 370.142 L190.686 370.411 L190.462 370.68 L190.012 371.22 L189.834 371.981 L189.972 373.455 L189.909 375.444 L188.613 380.279 L187.317 385.113 L185.75 389.726 L184.184 394.34 L182.595 398.707 L180.488 402.877 L178.38 407.046 L176.025 411.24 L174.88 412.342 L173.487 413.469 L172.318 414.325 L170.879 414.96 L169.169 415.373 L167.46 415.786 L165.704 415.709 L163.701 415.654 L162.262 416.289 L161.07 416.9 L159.902 417.757 L158.981 418.59 L158.307 419.398 L157.904 420.429 L157.501 421.459 L157.345 422.466 L157.437 423.449 L157.777 424.407 L158.139 425.611 L158.726 426.546 L159.584 427.702 L160.441 428.859 L161.524 429.746 L162.876 430.854 L164.159 431.226 L164.948 431.645 L165.489 432.089 L165.535 432.58 L165.604 433.317 L165.402 433.832 L164.976 434.617 L164.55 435.402 L161.631 438.906 L159.634 441.579 L158.781 443.148 L157.953 444.963 L157.595 446.485 L157.486 447.983 L157.376 449.481 L157.514 450.955 L157.813 454.148 L158.854 457.27 L158.635 460.265 L158.146 463.039 L157.386 465.591 L156.355 467.922 L154.806 470.055 L153.234 471.942 L151.168 473.877 L148.808 475.344 L147.483 477.208 L146.159 479.071 L144.858 481.179 L143.24 482.575 L141.082 483.527 L139.395 484.186 L137.979 485.067 L137.058 485.9 L136.407 486.954 L136.004 487.985 L136.119 489.213 L136.528 490.908 L136.372 491.915 L135.969 492.945 L135.52 493.485 L134.8 493.802 L134.058 493.874 L133.292 493.7 L132.481 493.035 Z"/>
<path d="M183.009 483.191 L183.642 484.617 L184.298 486.288 L185.403 487.421 L186.779 488.775 L188.402 490.105 L190.497 491.142 L192.592 492.179 L195.182 493.167 L196.667 493.024 L197.882 492.659 L198.354 492.365 L198.555 491.85 L198.757 491.335 L198.711 490.843 L198.325 489.393 L197.94 487.944 L197.013 486.05 L196.064 483.911 L196.174 482.413 L196.082 481.431 L195.788 480.963 L195.518 480.742 L194.977 480.298 L194.412 479.609 L194.183 477.153 L194.223 474.918 L194.557 473.151 L195.185 471.85 L195.835 470.796 L196.331 470.748 L196.849 470.946 L196.917 471.683 L197.39 471.389 L197.77 470.113 L197.476 469.646 L197.183 469.179 L196.665 468.981 L196.147 468.783 L195.986 467.064 L196.118 465.811 L196.815 465.248 L197.264 464.709 L197.713 464.17 L197.891 463.409 L198.272 462.133 L198.157 460.905 L199.463 461.522 L200.839 462.876 L201.829 462.78 L202.076 462.757 L202.301 462.487 L202.03 462.265 L201.714 461.552 L201.397 460.839 L202.048 459.785 L202.226 459.024 L202.405 458.263 L202.359 457.772 L201.795 457.082 L201.006 456.663 L199.228 456.339 L198.485 456.411 L199.113 455.111 L202.578 454.776 L206.02 454.195 L207.482 453.806 L208.697 453.441 L209.889 452.83 L210.81 451.997 L209.279 451.649 L207.523 451.571 L205.768 451.493 L204.305 451.883 L203.091 452.248 L201.876 452.613 L200.708 453.47 L200.034 454.279 L201.065 451.948 L201.871 449.887 L202.205 448.12 L202.314 446.622 L202.177 445.148 L201.814 443.944 L201.204 442.763 L200.617 441.829 L197.595 438.898 L195.454 437.37 L195.339 436.142 L195.023 435.429 L194.459 434.74 L193.918 434.297 L193.153 434.123 L192.41 434.195 L191.443 434.536 L190.476 434.878 L189.981 434.925 L188.743 435.045 L188.271 435.338 L187.327 435.926 L186.406 436.759 L185.531 438.082 L183.913 439.478 L182.79 440.826 L181.691 442.42 L180.839 443.989 L180.257 445.78 L179.923 447.548 L179.836 449.292 L179.773 451.28 L179.957 453.246 L180.411 455.433 L180.843 457.374 L181.545 459.537 L183.196 463.839 L184.893 468.632 L185.279 470.082 L185.192 471.825 L184.881 473.838 L184.323 475.876 L183.741 477.667 L183.183 479.704 L182.848 481.471 Z"/>
<path d="M227.781 475.886 L228.103 479.325 L227.93 482.812 L228.068 484.286 L228.476 485.982 L229.086 487.162 L230.191 488.294 L231.003 488.96 L231.521 489.157 L232.263 489.086 L233.253 488.99 L235.211 488.553 L237.121 487.624 L239.729 486.133 L241.663 485.45 L242.337 484.641 L243.011 483.832 L243.661 482.778 L243.817 481.772 L244.197 480.495 L244.082 479.267 L243.944 477.793 L243.806 476.319 L243.467 475.361 L243.375 474.378 L243.26 473.15 L243.416 472.143 L244.043 470.843 L244.175 469.591 L244.083 468.608 L243.744 467.65 L243.738 464.924 L244.205 461.904 L244.695 459.13 L245.455 456.578 L246.463 454.002 L247.741 451.648 L249.042 449.539 L250.591 447.406 L252.41 445.495 L254.252 443.83 L256.117 442.41 L258.23 440.966 L260.389 440.014 L262.547 439.061 L264.999 438.576 L267.452 438.091 L268.937 437.948 L270.128 437.337 L270.555 436.552 L270.733 435.791 L270.394 434.832 L269.559 433.922 L268.5 433.28 L266.698 432.711 L262.916 432.333 L259.204 432.692 L255.762 433.273 L252.59 434.075 L249.712 435.345 L247.127 437.083 L244.588 439.311 L242.32 441.761 L242.361 439.527 L241.952 437.831 L241.59 436.627 L241.003 435.692 L239.944 435.051 L238.683 434.925 L237.175 434.823 L235.442 434.99 L233.013 435.721 L231.102 436.649 L229.709 437.776 L228.834 439.1 L228.454 440.376 L228.074 441.652 L227.964 443.15 L228.102 444.624 L227.97 445.876 L227.86 447.374 L227.704 448.38 L227.301 449.41 L226.403 450.489 L225.212 451.1 L223.502 451.513 L221.274 451.729 L220.555 452.046 L220.083 452.34 L219.634 452.879 L219.432 453.394 L219.455 453.639 L219.501 454.131 L219.795 454.598 L220.313 454.796 L221.372 455.437 L223.173 456.006 L225.177 456.061 L227.629 455.576 L227.945 456.288 L227.766 457.05 L227.024 457.121 L226.304 457.439 L226.08 457.709 L225.879 458.224 L225.924 458.715 L226.218 459.182 L226.759 459.626 L227.547 460.045 L227.374 463.532 L226.706 467.067 L225.56 468.169 L224.144 469.049 L222.728 469.93 L221.065 470.835 L217.242 472.692 L213.69 474.77 L217.605 473.896 L222.215 472.458 L223.948 472.291 L225.456 472.393 L225.727 472.615 L226.02 473.082 L226.089 473.819 L225.934 474.825 L225.329 476.371 L224.252 478.21 L224.995 478.138 L226.187 477.528 L227.108 476.695 Z"/>
<path d="M242.227 406.077 L251.161 405.461 L260.094 404.844 L269.051 404.474 L277.984 403.858 L280.281 404.38 L282.307 404.679 L284.828 404.931 L287.303 404.692 L290.567 404.872 L293.808 404.806 L296.801 404.765 L298.804 404.819 L301.55 404.801 L304.767 404.49 L308.503 404.377 L312.014 404.533 L315.548 404.935 L319.129 405.828 L319.445 406.541 L318.996 407.08 L318.3 407.643 L317.603 408.206 L316.411 408.817 L314.995 409.698 L313.85 410.8 L312.479 412.172 L310.005 412.412 L307.282 412.675 L304.311 412.962 L301.387 413.74 L300.195 414.351 L299.275 415.184 L298.377 416.262 L297.973 417.293 L297.594 418.569 L297.754 420.288 L298.163 421.984 L299.112 424.123 L298.714 427.88 L298.248 430.899 L298.363 432.127 L298.455 433.11 L298.771 433.823 L299.312 434.266 L300.797 434.123 L302.329 434.47 L302.375 434.962 L302.443 435.698 L302.242 436.214 L301.994 436.238 L300.469 438.616 L299.685 440.923 L299.397 443.182 L299.334 445.171 L300.036 447.334 L300.962 449.227 L302.159 451.342 L303.851 453.409 L303.356 453.457 L302.66 454.02 L301.715 454.607 L300.771 455.194 L298.976 457.351 L297.426 459.484 L296.799 460.784 L296.396 461.814 L296.263 463.066 L296.108 464.073 L296.447 465.032 L297.011 465.72 L297.823 466.386 L299.106 466.757 L298.709 470.514 L298.311 474.27 L297.666 478.051 L297.268 481.807 L295.714 481.214 L294.385 480.351 L293.055 479.488 L291.927 478.11 L290.799 476.732 L289.671 475.354 L288.744 473.46 L288.065 471.543 L286.437 467.487 L285.482 462.622 L284.527 457.757 L283.797 452.622 L282.831 442.305 L282.183 432.701 L281.919 424.547 L281.165 419.166 L280.935 416.71 L280.504 414.769 L279.848 413.097 L278.473 411.743 L277.909 411.054 L277.12 410.634 L276.107 410.484 L275.071 410.089 L273.068 410.034 L270.615 410.52 L267.962 411.52 L265.038 412.298 L262.338 412.808 L259.593 412.825 L258.332 412.699 L257.296 412.304 L256.035 412.178 L255.224 411.512 L254.165 410.871 L253.601 410.182 L252.766 409.271 L252.427 408.313 L249.434 408.354 L246.417 408.151 L244.144 407.874 L242.365 407.551 L242.071 407.083 L241.801 406.862 L241.755 406.37 Z"/>
<path d="M337.623 448.656 L338.572 450.795 L339.769 452.91 L341.461 454.977 L343.107 456.553 L345.226 457.835 L347.321 458.872 L349.64 459.639 L351.914 459.915 L354.412 459.921 L356.887 459.682 L359.068 458.975 L361.475 457.999 L363.587 456.555 L365.654 454.62 L367.675 452.194 L369.155 449.324 L370.624 441.003 L371.442 433.735 L372.087 429.955 L373.003 426.396 L374.368 422.298 L376.204 417.907 L377.442 417.787 L378.409 417.446 L379.106 416.882 L379.802 416.319 L380.252 415.78 L380.43 415.019 L380.608 414.259 L380.764 413.252 L381.547 410.945 L382.871 409.082 L383.522 408.028 L384.466 407.441 L385.635 406.584 L386.826 405.973 L388.265 405.338 L389.48 404.973 L391.707 404.757 L394.407 404.249 L395.374 403.907 L396.048 403.098 L396.249 402.583 L395.933 401.87 L395.639 401.403 L395.052 400.468 L393.723 399.605 L392.687 399.209 L391.944 399.281 L391.248 399.844 L390.079 400.701 L388.979 402.295 L388.191 401.875 L387.425 401.701 L386.931 401.749 L386.459 402.043 L386.257 402.558 L385.831 403.343 L383.897 404.026 L381.986 404.954 L380.322 405.858 L378.434 407.033 L377.668 406.859 L376.655 406.709 L375.866 406.29 L375.055 405.624 L377.755 405.115 L378.52 405.289 L378.451 404.552 L378.382 403.815 L378.089 403.348 L377.525 402.659 L376.736 402.239 L375.948 401.82 L374.912 401.424 L373.876 401.029 L371.896 401.22 L368.027 402.586 L366.836 403.197 L365.914 404.03 L364.993 404.862 L364.343 405.917 L363.94 406.947 L363.807 408.199 L363.697 409.697 L364.106 411.392 L364.29 413.358 L364.698 415.053 L364.79 416.036 L364.612 416.797 L364.456 417.803 L364.03 418.588 L363.046 421.41 L362.038 423.986 L361.03 426.562 L360.563 429.582 L359.757 431.643 L358.951 433.704 L358.122 435.519 L357.27 437.089 L356.395 438.413 L355.52 439.737 L354.351 440.593 L353.407 441.18 L352.44 441.522 L351.45 441.617 L350.414 441.222 L349.378 440.826 L348.296 439.94 L347.438 438.783 L346.31 437.405 L345.632 435.488 L345.465 431.042 L345.322 426.842 L344.931 422.666 L344.091 419.029 L343.683 417.334 L342.779 415.686 L341.899 414.284 L340.771 412.906 L339.666 411.773 L338.065 410.689 L336.466 409.604 L334.416 409.059 L333.605 408.394 L332.569 407.998 L331.533 407.603 L330.272 407.477 L327.774 407.47 L325.074 407.979 L322.893 408.686 L321.252 409.836 L320.556 410.4 L320.107 410.939 L319.905 411.454 L319.974 412.191 L322.023 412.736 L325.557 413.138 L326.346 413.558 L327.134 413.977 L327.721 414.911 L328.308 415.846 L328.941 417.272 L329.102 418.992 L329.286 420.957 L329.245 423.192 L329.7 425.379 L330.425 427.787 L331.622 429.902 L333.337 432.215 L334.223 436.343 L335.356 440.447 L336.489 444.552 Z"/>
<path d="M354.175 385.335 L362.348 387.271 L371.166 385.427 L380.976 383.487 L391.055 381.768 L400.886 380.074 L409.728 378.475 L416.837 377.044 L421.741 376.074 L423.675 375.391 L424.395 375.074 L425.362 374.733 L426.036 373.924 L426.709 373.115 L427.786 371.276 L428.638 369.706 L429.628 369.61 L430.865 369.491 L430.036 371.306 L429.679 372.828 L429.57 374.326 L429.437 375.578 L429.776 376.536 L430.364 377.471 L431.175 378.136 L431.987 378.801 L433.023 379.197 L434.306 379.568 L435.567 379.694 L437.075 379.797 L440.315 379.731 L443.781 379.396 L451.114 377.695 L458.177 375.773 L464.003 373.97 L467.399 372.898 L470.594 372.341 L474.036 371.76 L477.749 371.401 L481.484 371.288 L485.22 371.174 L488.979 371.307 L492.513 371.709 L495.823 372.38 L498.885 373.075 L501.227 374.088 L502.264 374.484 L503.075 375.149 L503.887 375.814 L504.45 376.503 L504.79 377.462 L504.859 378.199 L504.704 379.205 L504.525 379.966 L503.874 381.02 L503.224 382.075 L502.078 383.177 L500.955 384.525 L498.371 386.262 L495.268 387.801 L491.423 389.412 L486.564 390.874 L483.865 391.383 L480.647 391.694 L476.934 392.053 L473.175 391.921 L469.417 391.789 L465.388 391.435 L461.583 390.812 L457.778 390.188 L451.383 388.576 L447.533 387.461 L444.447 386.52 L441.069 385.111 L436.072 385.099 L432.36 385.458 L430.875 385.601 L429.436 386.236 L428.244 386.847 L427.3 387.434 L426.379 388.267 L425.728 389.321 L425.101 390.622 L424.721 391.898 L424.277 395.163 L423.902 399.165 L423.147 404.443 L422.393 409.722 L421.368 414.778 L420.613 420.057 L419.858 425.335 L419.08 430.367 L418.325 435.645 L417.323 440.948 L417.058 443.452 L417.219 445.172 L417.334 446.4 L417.38 446.891 L417.967 447.826 L418.329 449.03 L418.812 454.189 L418.8 459.395 L418.782 461.876 L418.742 464.11 L418.385 465.632 L418.229 466.639 L417.083 467.741 L416.162 468.574 L415.218 469.161 L414.228 469.256 L413.215 469.107 L412.156 468.465 L411.074 467.578 L409.946 466.2 L409.647 463.007 L409.325 459.568 L408.871 457.381 L408.664 455.17 L408.975 453.157 L409.781 451.096 L410.409 449.796 L411.036 448.496 L411.169 447.244 L411.279 445.746 L411.388 444.248 L411.003 442.798 L410.369 441.372 L409.466 439.724 L408.782 435.081 L408.075 430.192 L407.39 425.549 L406.706 420.906 L406.021 416.262 L405.337 411.619 L404.63 406.73 L403.945 402.087 L403.56 400.636 L402.95 399.456 L403.284 397.689 L403.123 395.969 L402.49 394.543 L401.633 393.387 L400.798 392.476 L399.492 391.859 L397.961 391.511 L396.7 391.385 L394.202 391.379 L385.47 391.48 L376.715 391.335 L367.983 391.436 L359.228 391.291 L357.179 390.746 L355.13 390.2 L353.553 389.362 L351.952 388.277 L351.659 387.809 L351.613 387.318 L351.814 386.803 L352.039 386.534 L352.736 385.97 Z"/>
<path d="M189.943 415.843 L188.371 417.73 L186.978 418.856 L185.361 420.252 L184.261 421.846 L183.656 423.391 L183.57 425.135 L183.956 426.585 L184.859 428.233 L185.987 429.61 L187.857 430.917 L190.154 431.438 L192.157 431.493 L194.16 431.547 L195.87 431.134 L197.309 430.499 L198.478 429.642 L199.353 428.318 L199.98 427.018 L200.314 425.251 L200.401 423.507 L200.263 422.033 L199.9 420.829 L199.066 419.918 L197.984 419.031 L196.678 418.414 L194.876 417.845 L194.536 416.886 L194.197 415.927 L193.656 415.484 L193.115 415.04 L192.597 414.843 L191.854 414.915 L190.887 415.256 Z"/>
<path d="M86.578 394.856 L87.073 394.808 L87.545 394.515 L87.77 394.245 L87.971 393.73 L86.71 393.604 L86.238 393.897 L86.261 394.143 L86.284 394.389 Z"/>
<path d="M86.061 384 L86.107 384.491 L86.378 384.713 L86.919 385.156 L87.955 385.552 L88.45 385.504 L88.674 385.234 L88.652 384.989 L88.381 384.767 L87.546 383.856 L86.781 383.682 L86.286 383.73 Z"/>
<path d="M87.449 380.148 L87.449 380.148 L87.697 380.124 L88.192 380.076 L88.687 380.028 L88.71 380.273 L88.462 380.297 L88.485 380.543 L88.238 380.567 L88.238 380.567 L87.99 380.591 L88.013 380.836 L88.036 381.082 L87.812 381.352 L87.564 381.376 L87.587 381.621 L87.587 381.621 L87.092 381.669 L86.844 381.693 L87.069 381.423 L87.046 381.178 L87.023 380.932 L87.248 380.663 L87 380.686 L87 380.686 L86.977 380.441 L86.954 380.196 L87.202 380.171 Z"/>
<path d="M85.719 404.358 L85.742 404.604 L86.508 404.778 L86.462 404.286 L86.439 404.041 L85.696 404.113 Z"/>
<path d="M107.055 370.815 L107.055 370.815 L106.831 371.085 L106.584 371.109 L106.359 371.378 L106.382 371.624 L106.135 371.648 L105.887 371.672 L105.64 371.696 L105.663 371.942 L105.686 372.187 L105.438 372.211 L105.191 372.235 L104.966 372.504 L105.237 372.726 L105.237 372.726 L105.484 372.702 L105.979 372.655 L106.497 372.852 L106.474 372.607 L106.722 372.583 L106.969 372.559 L107.216 372.535 L107.418 372.02 L107.395 371.774 L107.62 371.504 L107.89 371.726 L108.115 371.456 L108.092 371.211 L108.316 370.941 L108.069 370.965 L108.046 370.72 L107.799 370.743 L107.528 370.521 L107.528 370.521 L107.28 370.546 L107.28 370.546 L107.032 370.569 L107.032 370.569 L107.032 370.569 Z"/>
<path d="M110.802 376.154 L110.578 376.423 L110.601 376.669 L111.096 376.621 L111.591 376.573 L111.838 376.549 L111.861 376.795 L111.861 376.795 L112.109 376.771 L112.333 376.501 L112.287 376.01 L112.04 376.034 L111.792 376.058 L111.769 375.813 L111.746 375.567 L111.499 375.591 L111.004 375.639 L111.027 375.884 L111.027 375.884 L110.802 376.154 Z"/>
<path d="M122.619 376.994 L122.642 377.24 L122.913 377.461 L123.183 377.683 L123.431 377.659 L123.656 377.39 L123.656 377.39 L123.656 377.39 L123.632 377.144 L123.88 377.12 L123.88 377.12 L124.105 376.85 L124.105 376.85 L124.352 376.826 L124.6 376.802 L124.6 376.802 L124.623 377.048 L124.623 377.048 L124.87 377.024 L124.847 376.778 L124.824 376.533 L124.824 376.533 L124.801 376.287 L124.801 376.287 L124.531 376.066 L124.778 376.042 L124.531 376.066 L123.765 375.892 L122.775 375.987 L122.775 375.987 L122.798 376.233 L122.821 376.479 L123.045 376.209 L123.045 376.209 L123.045 376.209 L123.293 376.185 L123.54 376.161 L123.54 376.161 L123.316 376.431 L123.316 376.431 L123.091 376.7 L122.844 376.724 Z"/>
<path d="M130.659 390.841 L130.636 390.595 L130.613 390.35 L130.613 390.35 L130.86 390.325 L131.085 390.056 L131.085 390.056 L131.332 390.032 L131.58 390.008 L131.603 390.254 L131.603 390.254 L131.626 390.499 L131.626 390.499 L131.896 390.721 L131.896 390.721 L131.919 390.967 L131.672 390.991 L131.424 391.015 L131.177 391.039 L131.177 391.039 L130.929 391.063 L130.929 391.063 Z"/>
<path d="M127.365 398.348 L127.141 398.617 L127.187 399.108 L127.434 399.084 L127.682 399.061 L127.682 399.061 L127.929 399.037 L127.952 399.282 L127.975 399.528 L128.246 399.749 L128.47 399.48 L128.695 399.21 L128.649 398.719 L128.649 398.719 L128.378 398.497 L128.378 398.497 L128.378 398.497 L128.378 398.497 L128.108 398.276 L128.355 398.252 L128.603 398.228 L128.579 397.982 L128.557 397.737 L128.309 397.761 L127.837 398.054 L127.613 398.324 Z"/>
<path d="M130.732 404.962 L130.732 404.962 L130.755 405.208 L130.53 405.477 L130.012 405.28 L130.035 405.525 L129.787 405.549 L129.81 405.795 L129.833 406.041 L130.104 406.262 L130.104 406.262 L131.612 406.364 L132.85 406.244 L133.074 405.975 L133.028 405.484 L132.758 405.262 L132.51 405.286 L132.24 405.064 L131.969 404.842 L131.226 404.914 Z"/>
<path d="M208.217 426.965 L208.263 427.456 L208.286 427.702 L208.557 427.924 L208.557 427.924 L209.322 428.098 L209.817 428.05 L210.042 427.78 L209.996 427.289 L209.748 427.312 L209.253 427.36 L209.23 427.115 L209.207 426.869 L208.712 426.917 Z"/>
<path d="M205.995 429.906 L206.018 430.152 L206.041 430.398 L206.041 430.398 L206.311 430.62 L206.559 430.596 L206.829 430.817 L206.806 430.572 L206.783 430.326 L206.783 430.326 L207.031 430.302 L207.008 430.056 L206.985 429.811 L206.242 429.882 Z"/>
<path d="M202.561 457.256 L203.326 457.43 L203.821 457.382 L203.775 456.891 L203.28 456.939 L202.762 456.741 L202.267 456.789 L202.29 457.035 Z"/>
<path d="M200.02 470.143 L199.796 470.413 L199.842 470.904 L200.112 471.126 L200.36 471.102 L200.36 471.102 L200.584 470.832 L200.809 470.563 L201.304 470.515 L201.529 470.246 L201.506 470 L201.235 469.778 L200.964 469.556 L200.493 469.85 Z"/>
<path d="M200.192 477.315 L200.44 477.291 L200.687 477.267 L200.934 477.243 L201.182 477.219 L201.406 476.95 L201.654 476.926 L201.902 476.902 L202.149 476.878 L202.419 477.1 L202.69 477.321 L202.466 477.591 L202.218 477.615 L201.499 477.932 L200.733 477.758 L200.485 477.782 Z"/>
<path d="M205.199 482.78 L206.08 484.182 L207.455 485.536 L207.725 485.758 L207.973 485.734 L208.175 485.219 L208.129 484.727 L207.001 483.349 L205.873 481.971 L205.378 482.019 L205.13 482.043 L204.906 482.312 Z"/>
<path d="M202.211 485.547 L202.28 486.284 L202.102 487.045 L202.844 486.974 L202.844 486.974 L202.798 486.482 L202.977 485.721 L202.706 485.499 Z"/>
<path d="M184.626 492.453 L184.717 493.436 L185.506 493.856 L185.506 493.856 L185.776 494.077 L186.024 494.053 L185.955 493.317 L185.909 492.825 L185.615 492.358 Z"/>
<path d="M192.631 500.602 L192.159 500.896 L192.182 501.142 L192.228 501.633 L192.297 502.37 L192.366 503.107 L192.705 504.066 L193.269 504.755 L193.856 505.689 L194.127 505.911 L194.42 506.378 L194.668 506.354 L194.938 506.576 L195.025 504.833 L194.639 503.383 L193.736 501.735 Z"/>
<path d="M238.985 496.863 L238.536 497.402 L238.335 497.918 L238.427 498.9 L238.789 500.104 L239.33 500.548 L239.894 501.237 L240.683 501.656 L241.201 501.854 L242.594 500.728 L243.717 499.38 L242.836 497.978 L242.002 497.067 L241.236 496.893 L240.718 496.695 L239.975 496.767 Z"/>
<path d="M245.359 487.571 L244.933 488.356 L244.777 489.363 L245.341 490.052 L246.152 490.717 L247.166 490.867 L248.156 490.771 L248.334 490.01 L248.467 488.758 L247.655 488.093 L247.091 487.404 L246.326 487.23 Z"/>
<path d="M224.008 456.917 L223.265 456.989 L222.77 457.037 L222.546 457.306 L222.569 457.552 L222.39 458.313 L222.436 458.804 L222.931 458.757 L223.898 458.415 L224.842 457.828 L225.067 457.558 L224.774 457.091 Z"/>
<path d="M223.566 449.524 L223.364 450.039 L223.657 450.507 L224.671 450.656 L225.661 450.56 L224.872 450.141 Z"/>
<path d="M258.337 415.425 L257.393 416.012 L256.99 417.043 L256.789 417.558 L256.834 418.049 L257.128 418.517 L257.421 418.984 L257.94 419.182 L258.457 419.379 L258.976 419.577 L259.447 419.284 L260.144 418.721 L260.57 417.936 L260.749 417.175 L260.68 416.438 L260.634 415.947 L260.363 415.725 L260.07 415.258 L259.575 415.305 L259.079 415.353 Z"/>
<path d="M268.71 414.174 L267.789 415.007 L266.666 416.355 L266.039 417.655 L265.613 418.44 L265.659 418.931 L265.659 418.931 L265.929 419.153 L266.177 419.129 L266.919 419.057 L267.863 418.47 L269.751 417.296 L271.346 415.654 L271.323 415.409 L271.3 415.163 L271.006 414.696 L270.489 414.498 L269.7 414.078 Z"/>
<path d="M278.897 421.616 L278.137 424.169 L276.859 426.523 L275.603 429.123 L275.068 431.406 L275.091 431.651 L275.114 431.897 L275.361 431.873 L275.586 431.604 L276.012 430.819 L276.663 429.764 L278.142 426.895 L279.42 424.54 L279.283 423.066 Z"/>
<path d="M303.357 488.159 L302.885 488.452 L302.436 488.991 L302.482 489.483 L302.776 489.95 L303.293 490.148 L303.541 490.124 L303.743 489.609 L303.944 489.094 L303.921 488.848 L303.875 488.357 L303.628 488.381 Z"/>
<path d="M282.609 466.618 L282.834 466.348 L283.105 466.57 L283.398 467.037 L283.219 467.798 L282.972 467.822 L282.702 467.6 L282.408 467.133 Z"/>
<path d="M287.558 476.797 L287.581 477.043 L287.604 477.289 L288.122 477.487 L288.617 477.439 L288.571 476.947 L288.525 476.456 L288.255 476.234 L288.007 476.258 L288.03 476.504 L288.053 476.75 L287.806 476.774 Z"/>
<path d="M251.526 430.708 L251.37 431.715 L251.71 432.674 L252.228 432.871 L252.7 432.578 L252.608 431.595 L252.786 430.834 L252.516 430.613 L252.245 430.391 L251.773 430.684 Z"/>
<path d="M400.261 405.417 L398.58 408.802 L397.1 411.672 L396.921 412.433 L397.192 412.655 L397.664 412.361 L398.113 411.822 L399.46 410.204 L400.289 408.389 L400.445 407.382 L400.601 406.376 L400.509 405.394 Z"/>
<path d="M404.467 415.669 L404.962 415.621 L405.48 415.819 L405.503 416.065 L405.526 416.31 L405.302 416.58 L405.054 416.604 L404.784 416.382 L404.514 416.16 L404.243 415.939 Z"/>
<path d="M405.921 433.871 L405.224 434.434 L404.281 435.021 L404.327 435.512 L404.868 435.956 L405.587 435.638 L406.013 434.853 L406.215 434.338 L406.192 434.092 L406.169 433.847 Z"/>
<path d="M505.52 382.596 L505.296 382.866 L505.566 383.087 L505.837 383.309 L506.309 383.015 L506.557 382.992 L506.534 382.746 L506.015 382.548 Z"/>
</g>
</svg>
